<?xml version="1.0" encoding="iso-8859-1"?>
<!-- Generator: Adobe Illustrator 19.0.0, SVG Export Plug-In . SVG Version: 6.00 Build 0)  -->
<svg version="1.1" id="Capa_1" xmlns="http://www.w3.org/2000/svg" xmlns:xlink="http://www.w3.org/1999/xlink" x="0px" y="0px"
	 viewBox="0 0 513.324 513.324" style="enable-background:new 0 0 513.324 513.324;" xml:space="preserve">
<g>
	<path style="fill:#CED6E0;" d="M347.862,512.258c0-1.067,0-2.133-1.067-3.2c-4.267-14.933-10.667-32-24.533-37.333
		c-5.333-2.133-12.8-2.133-16-7.467c-1.067-2.133-1.067-4.267-2.133-6.4c-5.333-32-1.067-67.2-14.933-96
		c-2.133-4.267-6.4-9.6-11.733-8.533c-1.067,19.2-2.133,38.4-3.2,57.6c0,6.4-1.067,13.867-2.133,20.267
		c-1.067,5.333-3.2,11.733-4.267,17.067c-6.4,21.333-13.867,41.6-19.2,62.933h99.2V512.258z"/>
	<path style="fill:#CED6E0;" d="M271.062,512.258c1.067-17.067,3.2-38.4,5.333-48c3.2-16,3.2-8.533,6.4-14.933
		c4.267-6.4,6.4-17.067,8.533-23.467c2.133-6.4,1.067-2.133,3.2-8.533c2.133-6.4,4.267-57.6,2.133-62.933
		c-2.133-5.333-4.267-5.333-10.667-5.333c-5.333,0-6.4-9.6-20.267-11.733c-13.867-2.133-27.733,5.333-37.333,7.467
		c-10.667,1.067-36.267,0-36.267,0s-23.467-3.2-33.067-1.067c-9.6,1.067-17.067,5.333-22.4,9.6c-6.4,4.267-19.2,8.533-24.533,9.6
		c-5.333,1.067-8.533,2.133-18.133,3.2c-9.6,1.067-21.333,14.933-30.933,22.4c-9.6,7.467-33.067,21.333-48,32
		c-4.267,3.2-9.6,6.4-14.933,10.667v81.067H271.062z"/>
</g>
<g>
	<path style="fill:#ADB3BA;" d="M229.462,505.858c4.267,3.2,7.467,2.133,8.533,6.4h33.067c0-5.333,1.067-11.733,2.133-18.133
		c-8.533-3.2-8.533,2.133-10.667-7.467c-1.067-9.6,4.267-25.6,1.067-33.067c-3.2-6.4-8.533-8.533-16-11.733
		c-8.533-4.267-17.067-5.333-23.467-9.6c-6.4-4.267-13.867,5.333-17.067,12.8c-3.2,7.467,9.6,40.533,9.6,40.533
		S224.129,502.658,229.462,505.858z"/>
	<path style="fill:#ADB3BA;" d="M162.262,420.524c4.267,9.6,3.2,11.733-3.2,18.133c-6.4,6.4-32,29.867-35.2,37.333s0,4.267-6.4,9.6
		c-3.2,2.133-19.2,14.933-35.2,27.733h1.067l42.667-32c0,0,6.4-8.533,13.867-10.667c7.467-3.2,23.467-5.333,32-5.333
		c8.533,0,7.467,9.6,11.733,10.667c3.2,0,4.267,0,4.267-1.067c-2.133,2.133-14.933,16-17.067,24.533
		c-2.133,7.467,0,8.533-2.133,13.867h54.4c0-6.4,1.067-11.733-1.067-16c-3.2-10.667-4.267-11.733-9.6-21.333
		c-5.333-8.533-2.133-23.467,5.333-32s6.4-11.733,7.467-22.4c2.133-10.667,24.533-43.733,34.133-54.4
		c9.6-10.667,18.133-22.4,18.133-22.4s-11.733-5.333-25.6-3.2c-12.8,2.133-8.533,16-22.4,16c-13.867,1.067-12.8-1.067-22.4,2.133
		s-19.2,7.467-24.533,10.667c-5.333,4.267-8.533,7.467-8.533,7.467l30.933,16c0,0-2.133,28.8-7.467,36.267
		c-6.4,7.467-8.533,11.733-8.533,11.733s12.8,3.2,13.867,5.333c1.067,2.133,2.133,9.6,2.133,9.6s-11.733-6.4-17.067,0
		c-5.333,6.4-6.4,7.467-6.4,7.467s-1.067-16,0-24.533c1.067-9.6,1.067-16,0-17.067c-1.067-1.067-5.333-8.533-16-16
		c-10.667-7.467-49.067-28.8-51.2-36.267s-2.133-8.533-2.133-8.533s-9.6,4.267-1.067,13.867
		C120.662,385.324,157.995,411.991,162.262,420.524z"/>
	<path style="fill:#ADB3BA;" d="M291.329,360.791l-1.067,38.4l-2.133,30.933c0,0-10.667-52.267-12.8-58.667
		c-2.133-6.4-7.467-18.133-7.467-18.133l14.933-5.333L291.329,360.791z"/>
	<path style="fill:#ADB3BA;" d="M265.729,390.658c2.133,4.267,3.2,7.467,5.333,11.733c0,1.067,1.067,2.133,1.067,3.2
		s-1.067,3.2-1.067,4.267c-1.067,4.267,2.133,7.467,3.2,11.733c0,1.067,0,3.2,0,4.267c-1.067,5.333-1.067,10.667-1.067,17.067
		c0-1.067-1.067-2.133-2.133-3.2c-1.067-2.133-1.067-4.267-1.067-6.4c0-2.133,1.067-4.267,0-6.4c-1.067-2.133-2.133-4.267-3.2-6.4
		c-2.133-3.2-2.133-7.467-1.067-10.667c0-1.067,1.067-2.133,1.067-3.2c2.133-7.467-3.2-14.933-3.2-22.4"/>
	<path style="fill:#ADB3BA;" d="M295.595,503.724c1.067,3.2,2.133,5.333,3.2,8.533h36.267c-2.133-4.267-4.267-8.533-7.467-11.733
		c-4.267-3.2-8.533-5.333-12.8-8.533c-9.6-6.4-16-17.067-19.2-27.733c-3.2-11.733-3.2-23.467-2.133-35.2l-3.2-10.667
		c-2.133-7.467-3.2-16-5.333-23.467c1.067,9.6,2.133,19.2,0,27.733c-1.067,3.2-2.133,6.4-2.133,9.6
		c-2.133,7.467-2.133,16-2.133,24.533c0,7.467,0,13.867,2.133,20.267C284.929,486.658,291.329,494.124,295.595,503.724z"/>
</g>
<g>
	<path style="fill:#CED6E0;" d="M326.529,512.258h43.733c-4.267-14.933-9.6-29.867-13.867-44.8c-1.067-4.267-2.133-7.467-3.2-11.733
		s-1.067-9.6-1.067-14.933c-1.067-13.867-1.067-27.733-2.133-40.533c-3.2-1.067-6.4,2.133-8.533,5.333
		c-9.6,20.267-6.4,44.8-10.667,68.267c0,1.067,0,3.2-1.067,4.267c-1.067,1.067-2.133,2.133-4.267,3.2
		C327.595,491.991,328.662,501.591,326.529,512.258z"/>
	<path style="fill:#CED6E0;" d="M513.195,432.258c-5.333-3.2-9.6-6.4-11.733-8.533c-7.467-5.333-14.933-14.933-21.333-16
		s-8.533-2.133-12.8-2.133c-3.2,0-12.8-4.267-17.067-6.4c-4.267-3.2-9.6-5.333-16-6.4c-6.4-1.067-23.467,1.067-23.467,1.067
		s-18.133,1.067-25.6,0s-17.067-6.4-26.667-5.333c-9.6,1.067-9.6,8.533-13.867,8.533c-4.267,0-5.333,0-7.467,3.2
		c-1.067,3.2,0,39.467,1.067,44.8c2.133,4.267,1.067,2.133,2.133,6.4s3.2,11.733,6.4,16c3.2,4.267,2.133-1.067,4.267,10.667
		c1.067,7.467,3.2,22.4,4.267,34.133h157.867V432.258z"/>
</g>
<g>
	<path style="fill:#ADB3BA;" d="M384.129,507.991c-3.2,2.133-5.333,1.067-6.4,4.267h-23.467c0-4.267-1.067-8.533-1.067-12.8
		c5.333-2.133,6.4,1.067,7.467-5.333c1.067-7.467-3.2-18.133-1.067-23.467c2.133-5.333,5.333-5.333,11.733-8.533
		c5.333-2.133,11.733-4.267,17.067-6.4c4.267-3.2,9.6,3.2,11.733,9.6c2.133,5.333-6.4,27.733-6.4,27.733
		S387.329,504.791,384.129,507.991z"/>
	<path style="fill:#ADB3BA;" d="M431.062,447.191c-3.2,6.4-2.133,8.533,2.133,12.8s22.4,21.333,24.533,26.667
		c2.133,5.333,0,3.2,4.267,6.4c2.133,2.133,13.867,10.667,24.533,19.2h-1.067l-29.867-22.4c0,0-4.267-5.333-9.6-7.467
		c-5.333-2.133-16-3.2-22.4-4.267c-6.4,0-5.333,6.4-7.467,7.467c-2.133,0-3.2,0-3.2-1.067c1.067,1.067,10.667,11.733,11.733,17.067
		c2.133,5.333,0,6.4,2.133,9.6h-38.4c0-4.267,0-8.533,0-11.733c2.133-7.467,3.2-8.533,6.4-14.933c3.2-6.4,1.067-17.067-4.267-22.4
		c-5.333-6.4-4.267-8.533-5.333-16s-17.067-30.933-24.533-38.4c-7.467-7.467-12.8-16-12.8-16s8.533-3.2,18.133-2.133
		c9.6,1.067,6.4,10.667,16,11.733c9.6,1.067,8.533-1.067,16,2.133c6.4,2.133,13.867,5.333,17.067,7.467
		c4.267,3.2,6.4,5.333,6.4,5.333l-21.333,10.667c0,0,1.067,20.267,5.333,25.6c4.267,5.333,6.4,8.533,6.4,8.533s-9.6,2.133-9.6,4.267
		c0,1.067-2.133,6.4-2.133,6.4s8.533-4.267,11.733,0c4.267,4.267,5.333,5.333,5.333,5.333s1.067-10.667,0-17.067
		c-1.067-6.4-1.067-11.733,0-11.733c0-1.067,3.2-6.4,11.733-10.667c7.467-5.333,34.133-20.267,36.267-25.6
		c1.067-5.333,2.133-6.4,2.133-6.4s6.4,3.2,1.067,9.6C460.929,422.658,434.262,440.791,431.062,447.191z"/>
	<path style="fill:#ADB3BA;" d="M340.395,404.524l3.2,25.6l5.333,1.067c0,0,1.067-16,3.2-20.267
		c1.067-4.267,5.333-11.733,5.333-11.733l-10.667-4.267L340.395,404.524z"/>
	<path style="fill:#ADB3BA;" d="M358.529,425.858c-1.067,2.133-2.133,5.333-3.2,7.467c0,1.067-1.067,1.067-1.067,2.133
		c0,1.067,1.067,2.133,1.067,3.2c1.067,3.2-2.133,5.333-2.133,8.533c0,1.067,0,2.133,0,3.2c1.067,4.267,1.067,7.467,0,11.733
		c0-1.067,1.067-1.067,1.067-2.133c1.067-1.067,1.067-3.2,1.067-4.267c0-1.067-1.067-3.2,0-4.267c0-2.133,2.133-3.2,2.133-4.267
		c1.067-2.133,1.067-5.333,1.067-7.467c0-1.067-1.067-1.067-1.067-2.133c-1.067-5.333,2.133-10.667,2.133-16"/>
	<path style="fill:#ADB3BA;" d="M337.195,505.858c-1.067,2.133-1.067,4.267-2.133,6.4h-24.533c1.067-3.2,3.2-6.4,5.333-8.533
		c2.133-2.133,6.4-4.267,9.6-6.4c6.4-4.267,11.733-11.733,13.867-20.267c2.133-7.467,2.133-16,1.067-24.533l2.133-7.467
		c1.067-5.333,2.133-10.667,3.2-17.067c-1.067,6.4-1.067,12.8,0,20.267c0,2.133,1.067,4.267,2.133,6.4
		c1.067,5.333,1.067,11.733,1.067,17.067c0,5.333,0,9.6-1.067,14.933C344.662,494.124,340.395,499.458,337.195,505.858z"/>
</g>
<path style="fill:#344A5E;" d="M274.262,42.924c0,0,20.267,5.333,16,10.667s-10.667,4.267-10.667,4.267
	S272.129,46.124,274.262,42.924z"/>
<path style="fill:#CED6E0;" d="M275.329,41.858c0,0,18.133,2.133,12.8,8.533c-5.333,5.333-6.4,4.267-6.4,4.267
	C277.462,50.391,275.329,46.124,275.329,41.858z"/>
<path style="fill:#FFD15C;" d="M276.395,14.124c0,0,2.133-3.2,3.2-4.267c1.067-1.067,4.267,0,4.267,0v1.067
	c0,0,1.067-1.067,3.2-2.133s3.2,0,3.2,0v1.067h1.067c0,0,1.067-2.133,2.133-2.133c1.067,0,1.067,1.067,1.067,1.067
	c0,1.067,0,1.067,0,1.067l-5.333,10.667c0,0,0,1.067,1.067,0l5.333-8.533h2.133c0,0-2.133,5.333-3.2,6.4
	c-1.067,1.067-2.133,3.2-2.133,4.267s1.067,3.2,1.067,7.467s-4.267,8.533-4.267,9.6c-1.067,1.067-1.067,1.067-1.067,1.067
	l-8.533,17.067l-6.4-7.467v-2.133c0,0,4.267-8.533,4.267-10.667c0-2.133-1.067-5.333-1.067-7.467c0-1.067-2.133-5.333-2.133-8.533
	S276.395,14.124,276.395,14.124z"/>
<g>
	<path style="fill:#F7B64C;" d="M283.862,17.324L283.862,17.324c1.067,0,1.067,0,2.133,0c0,0,0,0,1.067,1.067v1.067v1.067v1.067
		c0,1.067-1.067,1.067-1.067,2.133v1.067v1.067v1.067l0,0l0,0v-1.067v-1.067v-1.067c0-1.067,1.067-1.067,1.067-2.133v-1.067v-1.067
		c0-1.067,0-1.067-1.067-1.067C284.929,18.391,284.929,17.324,283.862,17.324L283.862,17.324z"/>
	<path style="fill:#F7B64C;" d="M281.729,24.791L281.729,24.791c0-1.067,0-1.067,0-1.067c0-1.067,0-2.133,0-3.2
		c0,0,0-1.067,1.067-1.067c0,0,0-1.067,1.067-1.067c0,0,0,0,1.067-1.067l0,0c0,0,0,0-1.067,1.067c0,0,0,1.067-1.067,1.067v1.067
		v1.067v1.067C281.729,24.791,281.729,24.791,281.729,24.791z"/>
</g>
<rect x="258.344" y="16.302" transform="matrix(-0.9859 0.1673 -0.1673 -0.9859 554.6174 -5.5866)" style="fill:#CED6E0;" width="38.4" height="8.533"/>
<path style="fill:#415A6B;" d="M292.395,13.058l2.133,8.533c0,1.067,1.067,1.067,1.067,1.067l9.6-2.133
	c1.067,0,1.067-1.067,1.067-1.067l-2.133-8.533c0-1.067-1.067-1.067-1.067-1.067l-9.6,2.133L292.395,13.058z"/>
<g>
	
		<rect x="238.455" y="21.923" transform="matrix(0.9859 -0.1673 0.1673 0.9859 -0.6995 41.9431)" style="fill:#E8EAE9;" width="20.267" height="6.4"/>
	
		<rect x="222.083" y="25.865" transform="matrix(-0.9859 0.1673 -0.1673 -0.9859 462.7554 18.0786)" style="fill:#E8EAE9;" width="17.067" height="5.333"/>
</g>
<g>
	<path style="fill:#344A5E;" d="M287.062,346.924c0,0,2.133-2.133,2.133-4.267c0-2.133-1.067-4.267-6.4-4.267
		c-5.333,0-8.533-1.067-10.667-3.2s-6.4-6.4-6.4-6.4l-24.533,2.133c0,0-3.2,4.267-3.2,8.533l2.133,4.267c0,0,11.733,0,14.933,0
		C258.262,346.924,280.662,352.258,287.062,346.924z"/>
	<path style="fill:#344A5E;" d="M188.929,349.058v-1.067c0,0,0-4.267,1.067-5.333c1.067-2.133,25.6,2.133,25.6,2.133
		s3.2,4.267,6.4,6.4s9.6,6.4,8.533,9.6c-1.067,3.2-1.067,3.2-1.067,3.2s-10.667,4.267-19.2,1.067s-13.867-8.533-14.933-9.6
		l-1.067-1.067C191.062,353.324,189.995,351.191,188.929,349.058z"/>
</g>
<path style="fill:#415A6B;" d="M191.062,194.391c0,0-1.067,13.867,2.133,25.6c2.133,11.733,3.2,26.667,2.133,29.867
	c-1.067,3.2-4.267,19.2-6.4,27.733c-1.067,7.467-1.067,32-1.067,38.4s0,26.667,0,26.667s3.2,8.533,11.733,7.467
	c8.533,0,16-5.333,16-5.333s-3.2-6.4-3.2-9.6c0-3.2,1.067-2.133-1.067-6.4c-2.133-3.2-4.267-27.733-1.067-33.067
	c3.2-5.333,10.667-44.8,10.667-44.8s4.267,29.867,6.4,37.333c2.133,6.4,10.667,39.467,10.667,39.467v10.667
	c0,0,11.733,4.267,18.133,1.067c6.4-2.133,9.6-8.533,9.6-8.533s-3.2-4.267-3.2-9.6c-1.067-4.267-4.267-6.4-5.333-8.533
	c-1.067-2.133-5.333-18.133-5.333-21.333c-1.067-3.2,0-10.667,0-17.067s-4.267-64-9.6-81.067
	c-5.333-17.067-5.333-17.067-5.333-17.067L191.062,194.391z"/>
<path style="fill:#344A5E;" d="M220.929,250.924c0,0,2.133-9.6,4.267-18.133c0-2.133,1.067-4.267,1.067-6.4
	c0-1.067,0-2.133,1.067-3.2c0-1.067,0-2.133,1.067-3.2c0-1.067,1.067-2.133,1.067-2.133c0-1.067,1.067-1.067,1.067-2.133
	c0-1.067,1.067-1.067,1.067-1.067l0,0v1.067c0,0,0,1.067,0,2.133c0,1.067,0,1.067,0,2.133s0,2.133,0,3.2c0,1.067,0,2.133-1.067,3.2
	c0,2.133-1.067,4.267-2.133,6.4c-1.067,4.267-2.133,9.6-3.2,12.8C221.995,248.791,220.929,250.924,220.929,250.924L220.929,250.924z
	"/>
<path style="fill:#FFD15C;" d="M278.529,25.858c0,0,3.2,1.067,3.2-1.067c1.067-2.133,0-3.2,1.067-5.333
	c1.067-2.133,1.067-2.133,1.067-2.133s3.2,0,3.2,2.133s-1.067,3.2-2.133,4.267c-1.067,1.067-1.067,2.133,0,3.2
	c0,1.067,2.133,3.2,1.067,6.4c-1.067,2.133-2.133,4.267-2.133,4.267S276.395,30.124,278.529,25.858z"/>
<path style="fill:#E8EAE9;" d="M283.862,54.658c2.133-2.133,4.267-5.333,4.267-5.333c-8.533,1.067-12.8-8.533-12.8-8.533
	s-2.133,3.2-3.2,4.267c-1.067,1.067-3.2,6.4-3.2,6.4s-1.067,1.067-1.067,2.133h16V54.658z"/>
<path style="fill:#415A6B;" d="M214.529,61.058c0,0,3.2,0,6.4,1.067c2.133,1.067,2.133,2.133,4.267,3.2
	c2.133,2.133,2.133,2.133,3.2,2.133c1.067,0,13.867,3.2,16,3.2c2.133,0,9.6,0,10.667,0s5.333-4.267,5.333-5.333
	c1.067-1.067,2.133-4.267,3.2-5.333s1.067-3.2,2.133-4.267c1.067,0,3.2-6.4,4.267-8.533c1.067-1.067,4.267-4.267,4.267-4.267
	s5.333,11.733,16,10.667c0,0-7.467,7.467-9.6,12.8c-2.133,5.333-4.267,8.533-6.4,10.667c-1.067,3.2-2.133,3.2-3.2,5.333
	c-1.067,2.133-2.133,4.267-5.333,5.333c-3.2,1.067-27.733,6.4-27.733,6.4l-22.4-24.533L214.529,61.058z"/>
<path style="fill:#344A5E;" d="M239.062,94.124c0,0,6.4-1.067,12.8-3.2l0,0c0-1.067-1.067-2.133-1.067-3.2c0-1.067,0-1.067,0-2.133
	c0,0,0-1.067-1.067-1.067c-1.067-1.067-1.067-3.2-1.067-4.267c-1.067-3.2,0-5.333,0-8.533c-2.133,0-3.2,0-4.267,0
	c-1.067,0-4.267-1.067-8.533-2.133c-1.067,1.067-1.067,1.067-1.067,2.133c-1.067,1.067-1.067,3.2-1.067,5.333
	c-1.067,2.133-1.067,4.267-2.133,6.4v1.067L239.062,94.124z"/>
<path style="fill:#FFD15C;" d="M242.262,53.591c0,0,0-3.2,0-6.4c1.067-3.2,1.067-7.467,0-11.733s-3.2-7.467-3.2-7.467
	s0-4.267,0-5.333c0-2.133-1.067-2.133-1.067-2.133s-1.067,0-1.067,1.067c0,0,0-1.067-1.067-1.067c-1.067,0-2.133,1.067-2.133,1.067
	s0-1.067-2.133,0s-2.133,1.067-2.133,1.067s-1.067-1.067-2.133-1.067c-1.067,0-2.133,1.067-2.133,2.133
	c0,1.067-1.067,1.067-1.067,3.2s0,5.333,0,7.467c0,1.067,2.133,3.2,2.133,5.333c1.067,2.133,3.2,4.267,4.267,6.4
	c0,1.067,2.133,7.467,1.067,10.667c-1.067,3.2-1.067,3.2-1.067,3.2L242.262,53.591z"/>
<path style="fill:#E8EAE9;" d="M245.462,58.924c1.067-4.267,1.067-6.4,1.067-6.4s-4.267-2.133-8.533-2.133
	c-3.2,0-7.467,2.133-7.467,2.133s-1.067,5.333-1.067,7.467L245.462,58.924z"/>
<path style="fill:#ADB3BA;" d="M205.995,63.191l4.267-2.133l19.2,25.6l-2.133,11.733l-23.467-14.933
	C203.862,83.458,192.129,67.458,205.995,63.191z"/>
<path style="fill:#344A5E;" d="M213.462,68.524c0,0,4.267,6.4,7.467,12.8c3.2,6.4,14.933,32,16,38.4c0,0,5.333,54.4,5.333,61.867
	c0,0,5.333,2.133,5.333-1.067c1.067-3.2-8.533-50.133-8.533-57.6s-3.2-33.067-3.2-33.067s-4.267-16-10.667-21.333
	c-5.333-6.4-10.667-8.533-10.667-8.533l-7.467-1.067C207.062,59.991,212.395,65.324,213.462,68.524"/>
<path style="fill:#CED6E0;" d="M205.995,63.191c0,0,5.333,1.067,7.467,5.333c0,0-1.067-3.2-3.2-5.333c-2.133-2.133-3.2-3.2-3.2-3.2
	S205.995,62.124,205.995,63.191z"/>
<path style="fill:#FFD15C;" d="M213.462,14.124c0,0,4.267,9.6,4.267,10.667c0,1.067,0,2.133,1.067,3.2s4.267,5.333,4.267,6.4
	s0,2.133-1.067,3.2c-1.067,1.067-2.133,1.067-2.133,1.067v2.133c0,0,0,1.067-1.067,1.067c0,0,1.067,0,1.067,2.133
	c0,1.067-1.067,2.133-1.067,3.2c0,2.133-1.067,4.267-5.333,5.333s-5.333,1.067-5.333,2.133s-4.267,13.867-4.267,13.867
	l-21.333-5.333l2.133-19.2C183.595,43.991,197.462,10.924,213.462,14.124z"/>
<path style="fill:#E8EAE9;" d="M186.795,63.191l25.6,7.467c0,0-1.067-6.4-5.333-8.533c0,0-6.4-2.133-14.933-4.267
	c-8.533-2.133-9.6-1.067-9.6-1.067l-2.133,5.333L186.795,63.191z"/>
<path style="fill:#415A6B;" d="M218.795,19.458c0,0-2.133,3.2-10.667,1.067c0,0,3.2,6.4,0,12.8c0,0,1.067-2.133,0-4.267
	c0,0-1.067,5.333,0,8.533l-2.133,1.067c0,0-2.133-6.4-9.6-6.4c-7.467,0-3.2,10.667-4.267,13.867s-8.533,6.4-8.533,6.4
	s-8.533-11.733-11.733-20.267c-2.133-7.467-2.133-16,3.2-23.467s16-9.6,22.4-8.533C203.862,1.324,217.729,9.858,218.795,19.458z"/>
<path style="fill:#FFD15C;" d="M200.662,35.458c3.2,3.2,3.2,7.467,1.067,8.533c-2.133,1.067-6.4,0-9.6-4.267s-3.2-7.467-1.067-8.533
	C194.262,30.124,198.529,32.258,200.662,35.458z"/>
<path style="fill:#344A5E;" d="M182.529,57.858c0,0,10.667,4.267,14.933,6.4c4.267,2.133,14.933,9.6,18.133,11.733
	c3.2,3.2,19.2,25.6,20.267,30.933c1.067,5.333,8.533,64,6.4,71.467c-1.067,6.4,3.2,12.8-9.6,14.933
	c-12.8,2.133-39.467,9.6-41.6,5.333c-3.2-4.267-4.267-32-2.133-45.867s-1.067-22.4-6.4-33.067
	c-5.333-10.667-14.933-29.867-11.733-42.667C173.995,65.324,182.529,57.858,182.529,57.858z"/>
<g>
	<path style="fill:#415A6B;" d="M236.929,113.324c0-3.2-1.067-5.333-1.067-6.4c-1.067-5.333-18.133-27.733-20.267-30.933
		c-3.2-3.2-12.8-9.6-18.133-11.733c-5.333-3.2-14.933-6.4-14.933-6.4s-3.2,2.133-6.4,6.4c0,0,3.2,1.067,9.6,3.2
		c6.4,2.133,7.467,1.067,7.467,1.067l1.067,1.067c0,0,9.6,3.2,14.933,6.4C214.529,79.191,226.262,91.991,236.929,113.324
		L236.929,113.324z"/>
	<path style="fill:#415A6B;" d="M199.595,106.924c-8.533,0-16-3.2-21.333-9.6c-2.133-2.133-3.2-4.267-4.267-7.467
		c-4.267-11.733,1.067-16,6.4-18.133c5.333-2.133,20.267,1.067,24.533,8.533c0,0,2.133,1.067,4.267,1.067
		c1.067,0,4.267,2.133,5.333,2.133c0,2.133,3.2,1.067,5.333,2.133c2.133,1.067,3.2,0,3.2,0s2.133-5.333,2.133-6.4
		s1.067-4.267,2.133-6.4c1.067-2.133,0-6.4,0-8.533c0-2.133,2.133-10.667,2.133-10.667s5.333-2.133,9.6-1.067s9.6,4.267,9.6,4.267
		s-3.2,18.133-3.2,22.4c0,4.267,0,7.467-2.133,11.733c-1.067,4.267-1.067,6.4-2.133,8.533c0,2.133-2.133,6.4-7.467,7.467
		c-5.333,1.067-22.4,0-27.733,0C204.929,106.924,201.729,106.924,199.595,106.924z"/>
</g>
<path style="fill:#F7B64C;" d="M208.129,54.658c0-1.067,1.067-1.067,5.333-2.133c1.067,0,1.067,0,2.133,0
	c-2.133,0-8.533-1.067-17.067-6.4C198.529,46.124,200.662,51.458,208.129,54.658C208.129,55.724,208.129,54.658,208.129,54.658z"/>
<g>
	<path style="fill:#415A6B;" d="M187.862,346.924c0,0,0,2.133,3.2,4.267c3.2,2.133,7.467,5.333,10.667,8.533
		c3.2,3.2,14.933,5.333,21.333,3.2c6.4-2.133,7.467-3.2,7.467-3.2s1.067,1.067,1.067,2.133c-1.067,1.067-8.533,4.267-14.933,3.2
		c-6.4-1.067-12.8-3.2-16-6.4c-3.2-3.2-4.267-4.267-4.267-4.267v2.133c0,0-6.4-2.133-7.467-3.2
		c-1.067-1.067-1.067-1.067-1.067-2.133V346.924z"/>
	<path style="fill:#415A6B;" d="M237.995,341.591c0,0,1.067,2.133,4.267,2.133c4.267,1.067,9.6,0,13.867,1.067s12.8,3.2,17.067,3.2
		s14.933-3.2,14.933-5.333c0,0,2.133,2.133,0,4.267c-1.067,1.067-10.667,5.333-21.333,3.2l-13.867-3.2v1.067
		c0,0-11.733,1.067-14.933-1.067C236.929,346.924,237.995,341.591,237.995,341.591z"/>
</g>
<g>
</g>
<g>
</g>
<g>
</g>
<g>
</g>
<g>
</g>
<g>
</g>
<g>
</g>
<g>
</g>
<g>
</g>
<g>
</g>
<g>
</g>
<g>
</g>
<g>
</g>
<g>
</g>
<g>
</g>
</svg>
