<?xml version="1.0" encoding="iso-8859-1"?>
<!-- Generator: Adobe Illustrator 19.0.0, SVG Export Plug-In . SVG Version: 6.00 Build 0)  -->
<svg version="1.1" id="Capa_1" xmlns="http://www.w3.org/2000/svg" xmlns:xlink="http://www.w3.org/1999/xlink" x="0px" y="0px"
	 viewBox="0 0 512.169 512.169" style="enable-background:new 0 0 512.169 512.169;" xml:space="preserve">
<circle style="fill:#87D2F3;" cx="149.421" cy="149.502" r="138.667"/>
<path style="fill:#FFFFFF;" d="M170.754,458.836v21.333c0,11.782-9.551,21.333-21.333,21.333s-21.333-9.551-21.333-21.333V373.502
	c0.035-11.767,9.566-21.298,21.333-21.333c11.746,0.087,21.246,9.588,21.333,21.333V458.836z"/>
<path style="fill:#87D2F3;" d="M501.421,352.169L394.754,458.836v-64c0-23.564,19.102-42.667,42.667-42.667H501.421z"/>
<path style="fill:#FFFFFF;" d="M501.421,53.502v298.667h-64c-23.564,0-42.667,19.102-42.667,42.667v64h-224v-85.333
	c-0.087-11.746-9.588-21.246-21.333-21.333v-64c76.583,0,138.667-62.083,138.667-138.667S226.005,10.836,149.421,10.836h309.333
	C482.319,10.836,501.421,29.938,501.421,53.502z"/>
<g>
	<path style="fill:#2170A6;" d="M160.088,343.444v-45.152c82.264-5.891,144.176-77.355,138.285-159.619
		C292.482,56.409,221.018-5.503,138.754,0.388S-5.422,77.743,0.469,160.006c5.304,74.065,64.22,132.981,138.285,138.285v45.173
		c-12.74,4.504-21.277,16.525-21.333,30.037v106.667c0,17.673,14.327,32,32,32s32-14.327,32-32V373.502
		C181.393,359.976,172.847,347.934,160.088,343.444z M21.421,149.502c0-70.692,57.308-128,128-128s128,57.308,128,128
		s-57.308,128-128,128C78.76,277.426,21.497,220.163,21.421,149.502z M160.088,480.169c0,5.891-4.776,10.667-10.667,10.667
		c-5.891,0-10.667-4.776-10.667-10.667V373.502c0-5.891,4.776-10.667,10.667-10.667c2.874-0.009,5.624,1.172,7.595,3.264
		c1.99,1.946,3.1,4.62,3.072,7.403V480.169z"/>
	<path style="fill:#2170A6;" d="M458.754,0.169H277.421v21.333h181.333c17.673,0,32,14.327,32,32v288h-53.333
		c-29.441,0.035-53.298,23.893-53.333,53.333v53.333H213.421v21.333h181.333c2.829-0.001,5.541-1.125,7.541-3.125L508.962,359.71
		c2.001-2,3.125-4.713,3.125-7.541V53.502C512.052,24.062,488.195,0.204,458.754,0.169z M437.421,362.836h38.251l-70.251,70.251
		v-38.251C405.421,377.163,419.748,362.836,437.421,362.836z"/>
	<path style="fill:#2170A6;" d="M149.421,64.169c-47.106,0.053-85.28,38.227-85.333,85.333h21.333c0.035-35.332,28.668-63.965,64-64
		V64.169z"/>
</g>
<g>
</g>
<g>
</g>
<g>
</g>
<g>
</g>
<g>
</g>
<g>
</g>
<g>
</g>
<g>
</g>
<g>
</g>
<g>
</g>
<g>
</g>
<g>
</g>
<g>
</g>
<g>
</g>
<g>
</g>
</svg>
