<svg id="Layer_3" enable-background="new 0 0 96 96" viewBox="0 0 96 96" xmlns="http://www.w3.org/2000/svg"><path d="m90.44 54.21c.36.51.56 1.13.56 1.76 0 1.67-1.36 3.03-3.03 3.03h-6.97v16c0 2.21-1.79 4-4 4h-18v14h-36c0-10.35-3.49-20.4-9.89-28.54-5.33-6.78-8.41-15.42-8.09-24.79.68-20.04 18.31-36.87 38.36-36.67 17.62.18 32.37 12.34 36.48 28.72 1.87 7.44 4.89 14.53 9.35 20.77z" fill="#63b2b9"/><path d="m23 35h-1c-1.66 0-3.16-.67-4.24-1.76-1.09-1.08-1.76-2.58-1.76-4.24 0-3.01 2.22-5.49 5.1-5.93-.06-.34-.1-.7-.1-1.07 0-3.31 2.69-6 6-6 .37 0 .73.04 1.07.1.44-2.88 2.92-5.1 5.93-5.1 1.24 0 2.39.38 3.34 1.02.82-2.34 3.04-4.02 5.66-4.02s4.84 1.68 5.66 4.02c.95-.64 2.1-1.02 3.34-1.02 3.01 0 5.49 2.22 5.93 5.1.34-.06.7-.1 1.07-.1 3.31 0 6 2.69 6 6 0 .37-.04.73-.1 1.07 1.44.22 2.72.95 3.63 2s1.47 2.43 1.47 3.93c0 3.31-2.69 6-6 6h-24v2c0 2.21-1.79 4-4 4h-9c-2.21 0-4-1.79-4-4z" fill="#f9aa3d"/><circle cx="51" cy="79" r="1"/><circle cx="47" cy="79" r="1"/><circle cx="43" cy="79" r="1"/><circle cx="31" cy="74" r="1"/><path d="m59.636 43.293c-.391-.391-1.023-.391-1.414 0s-.391 1.023 0 1.414c2.145 2.145 4.961 3.217 7.778 3.217s5.634-1.072 7.778-3.217c.391-.391.391-1.023 0-1.414s-1.023-.391-1.414 0c-3.509 3.51-9.218 3.51-12.728 0z"/><path d="m93 2h-6c-.553 0-1 .447-1 1s.447 1 1 1h3.586l-9.586 9.586-6.293-6.293c-.391-.391-1.023-.391-1.414 0l-4.476 4.476c-6.851-6.044-15.79-9.671-25.423-9.767-20.605-.175-38.668 17.031-39.37 37.639-.313 9.201 2.636 18.236 8.304 25.441 6.237 7.93 9.672 17.845 9.672 27.918 0 .553.447 1 1 1h36c.553 0 1-.447 1-1v-13h17c2.757 0 5-2.243 5-5v-15h5.971c2.222 0 4.029-1.807 4.029-4.029 0-.845-.26-1.655-.751-2.342l-1.228-1.72c-4.157-5.819-7.25-12.694-9.193-20.434-1.798-7.163-5.527-13.441-10.544-18.345l3.716-3.716 6.293 6.293c.391.391 1.023.391 1.414 0l10.293-10.293v3.586c0 .553.447 1 1 1s1-.447 1-1v-6c0-.552-.447-1-1-1zm-14.111 29.962c2.004 7.983 5.202 15.086 9.506 21.109l1.228 1.72c.246.347.377.754.377 1.18 0 1.119-.91 2.029-2.029 2.029h-6.971c-.553 0-1 .447-1 1v7h-7c-1.654 0-3-1.346-3-3v-1c0-.553-.447-1-1-1s-1 .447-1 1v1c0 2.757 2.243 5 5 5h7v7c0 1.654-1.346 3-3 3h-15.586l-4.414-4.414v-17.586c0-.266-.105-.52-.293-.707l-4.707-4.707v-11.586c0-.553-.447-1-1-1s-1 .447-1 1v12c0 .266.105.52.293.707l4.707 4.707v17.586c0 .266.105.52.293.707l3.293 3.293h-3.586c-.553 0-1 .447-1 1s.447 1 1 1h3v12h-26v-14c0-.553-.447-1-1-1s-1 .447-1 1v14h-6.011c-.22-10.175-3.783-20.136-10.09-28.154-1.206-1.533-2.274-3.156-3.214-4.846h11.315c.553 0 1-.447 1-1s-.447-1-1-1h-12.358c-.47-.981-.897-1.982-1.278-3h13.636c.553 0 1-.447 1-1s-.447-1-1-1h-14.314c-.307-.988-.575-1.988-.799-3h15.113c.553 0 1-.447 1-1s-.447-1-1-1h-15.497c-.395-2.395-.565-4.836-.481-7.291.662-19.435 17.57-35.709 37.007-35.709.114 0 .23.001.346.002 9.095.09 17.539 3.499 24.026 9.183l-3.661 3.661c-1.312-1.213-3.087-1.932-5.037-1.839-.87-2.912-3.598-5.007-6.703-5.007-1.001 0-1.979.211-2.878.617-1.216-2.202-3.552-3.617-6.122-3.617s-4.906 1.415-6.122 3.617c-.899-.406-1.877-.617-2.878-.617-3.104 0-5.833 2.095-6.703 5.007-4.008-.196-7.297 3.035-7.297 6.993 0 .099.002.197.007.297-2.912.87-5.007 3.599-5.007 6.703 0 3.859 3.141 7 7 7v1c0 2.414 1.721 4.434 4 4.899v47.101c0 .553.447 1 1 1s1-.447 1-1v-47h7v3.586l-4.707 4.707c-.187.188-.293.442-.293.707v19c0 .553.447 1 1 1s1-.447 1-1v-18.586l4.707-4.707c.188-.187.293-.441.293-.707v-4.101c2.279-.465 4-2.484 4-4.899v-1h4v6.586l-5.707 5.707c-.187.188-.293.442-.293.707v9.586l-3.707 3.707c-.187.188-.293.442-.293.707v6c0 .553.447 1 1 1s1-.447 1-1v-5.586l2-2v12.586c0 .553.447 1 1 1s1-.447 1-1v-20.586l4 4v7.586c0 .553.447 1 1 1s1-.447 1-1v-8c0-.266-.105-.52-.293-.707l-5.707-5.707v-1.172l5.707-5.707c.188-.187.293-.441.293-.707v-7h17c3.859 0 7-3.141 7-7 0-3.104-2.095-5.833-5.007-6.703.005-.099.007-.198.007-.297 0-1.311-.366-2.538-.994-3.592l3.864-3.864c4.767 4.656 8.311 10.616 10.019 17.418zm-14.889-9.962c0 .287-.028.579-.085.896-.049.266.013.54.17.761.157.22.397.366.665.407 2.423.364 4.25 2.486 4.25 4.936 0 2.757-2.243 5-5 5h-24c-.553 0-1 .447-1 1v2c0 1.654-1.346 3-3 3h-9c-1.654 0-3-1.346-3-3v-1h12c.553 0 1-.447 1-1s-.447-1-1-1h-14c-2.757 0-5-2.243-5-5 0-2.45 1.827-4.572 4.25-4.937.237-.04.502-.063.75-.063.573 0 1.134.096 1.666.284.517.183 1.092-.088 1.276-.608s-.088-1.092-.608-1.276c-.747-.265-1.532-.4-2.334-.4 0-2.757 2.243-5 5-5 1.391 0 2.805.633 3.729 1.667.197.221.47.333.745.333.237 0 .476-.084.667-.255.411-.368.446-1 .078-1.412-.805-.9-1.825-1.555-2.945-1.938.677-1.984 2.574-3.395 4.726-3.395.76 0 1.5.173 2.174.5-.109.484-.174.984-.174 1.5 0 .553.447 1 1 1s1-.447 1-1c0-2.025 1.275-3.894 3.155-4.645.586-.234 1.215-.355 1.845-.355 1.886 0 3.59 1.072 4.437 2.721-1.485 1.284-2.437 3.167-2.437 5.279 0 .553.447 1 1 1s1-.447 1-1c0-2.045 1.341-3.969 3.264-4.68.557-.205 1.142-.32 1.736-.32 2.155 0 4.053 1.414 4.728 3.403-.424.142-.84.309-1.229.534-.478.276-.642.888-.364 1.366.275.478.886.642 1.366.364.581-.336 1.23-.531 1.897-.611.204-.024.409-.056.602-.056 1.273 0 2.423.493 3.307 1.279l-8.307 8.307-5.293-5.293c-.391-.391-1.023-.391-1.414 0l-5.293 5.293-5.293-5.293c-.391-.391-1.023-.391-1.414 0l-5.293 5.293-1.293-1.293c-.391-.391-1.023-.391-1.414 0s-.391 1.023 0 1.414l4 4c.195.196.451.293.707.293s.512-.098.707-.293c.391-.391.391-1.023 0-1.414l-1.293-1.293 4.586-4.586 5.293 5.293c.391.391 1.023.391 1.414 0l5.293-5.293 5.293 5.293c.195.196.451.293.707.293s.512-.098.707-.293l8.812-8.812c.301.642.481 1.351.481 2.105z"/><circle cx="10" cy="43" r="1"/><circle cx="10" cy="39" r="1"/><circle cx="10" cy="35" r="1"/><circle cx="14" cy="43" r="1"/><circle cx="14" cy="39" r="1"/><circle cx="18" cy="43" r="1"/></svg>