<?xml version="1.0" encoding="iso-8859-1"?>
<!-- Generator: Adobe Illustrator 19.0.0, SVG Export Plug-In . SVG Version: 6.00 Build 0)  -->
<svg version="1.1" id="Capa_1" xmlns="http://www.w3.org/2000/svg" xmlns:xlink="http://www.w3.org/1999/xlink" x="0px" y="0px"
	 viewBox="0 0 512.001 512.001" style="enable-background:new 0 0 512.001 512.001;" xml:space="preserve">
<path style="fill:#F9C5B5;" d="M463.382,395.706l6.969-100.201c45.058-45.629,37.751-109.14,37.751-109.14
	c0-66.747-53.431-120.856-119.341-120.856S269.42,119.617,269.42,186.364v16.032l-20.783,69.234
	c-1.173,3.908,1.753,7.842,5.834,7.842h27.128l1.884,63.449c0.297,10.001,9.063,17.621,19.008,16.524l43.041-4.747l8.897,52.85"/>
<g style="opacity:0.1;">
	<polygon points="450.54,295.504 443.572,397.063 463.35,394.916 470.351,295.504 	"/>
</g>
<path style="fill:#65CDEF;" d="M199.435,118.767c21.148,0,38.291-17.143,38.291-38.291s-17.143-38.291-38.291-38.291
	c-1.447,0-2.872,0.087-4.277,0.244c-8.326-19.818-27.916-33.737-50.76-33.737c-30.396,0-55.037,24.641-55.037,55.037
	c0,0.014,0.001,0.028,0.001,0.042c-14.501,0.78-26.02,12.783-26.02,27.478c0,15.198,12.32,27.519,27.519,27.519H199.435z"/>
<path style="opacity:0.1;enable-background:new    ;" d="M199.418,42.186c-1.447,0-2.872,0.087-4.277,0.244
	c-8.326-19.818-27.916-33.737-50.76-33.737c-4.836,0-9.523,0.628-13.991,1.8c16.642,4.361,30.211,16.313,36.774,31.937
	c1.405-0.156,2.83-0.244,4.277-0.244c21.148,0,38.291,17.143,38.291,38.291c0,21.147-17.143,38.291-38.291,38.291h27.977
	c21.148,0,38.291-17.143,38.291-38.291C237.708,59.329,220.565,42.186,199.418,42.186z"/>
<polygon style="opacity:0.1;enable-background:new    ;" points="36.381,250.924 37.668,261.959 146.256,255.566 143.687,244.455 
	"/>
<path style="fill:#7C4238;" d="M433.504,254.755l-6.438,27.122l19.242-2.738l8.922,30.92c0,0,56.769-40.328,56.769-115.019
	c0-61.712-41.655-102.607-48.462-108.58c-0.659-0.578-1.03-1.407-1.03-2.283V34.752c0-2.47-2.187-4.367-4.631-4.02l-61.305,8.706
	c-0.92,0.131-1.856-0.058-2.654-0.534l-33.885-20.241c-1.741-1.039-3.982-0.635-5.251,0.946l-34.524,43.077
	c-1.372,1.712-3.858,2.024-5.612,0.704L290.86,45.474c-2.878-2.167-6.943,0.207-6.468,3.778l13.548,101.867
	c0.4,3.006,3.833,4.528,6.329,2.808l16.811-11.588c1.469-1.012,3.426-0.948,4.825,0.159l21.242,16.815
	c1.395,1.103,3.345,1.171,4.813,0.167l21.283-14.561c2.677-1.831,6.315,0.06,6.353,3.303l0.879,74.998
	c0.026,2.224,1.836,4.013,4.06,4.013h8.112c1.88,0,3.514-1.29,3.95-3.119l0,0L433.504,254.755z"/>
<g style="opacity:0.1;">
	<path d="M463.538,86.46c-0.659-0.578-1.03-1.407-1.03-2.283V34.752c0-2.47-2.187-4.367-4.631-4.02l-23.066,3.276
		c0.045,0.243,0.082,0.488,0.082,0.744v49.427c0,0.876,0.372,1.704,1.03,2.283c6.807,5.973,48.462,46.868,48.462,108.58
		c0,43.352-19.125,75.125-35.172,94.157l6.02,20.861c0,0,56.769-40.328,56.769-115.019C512,133.328,470.345,92.433,463.538,86.46z"
		/>
</g>
<path style="fill:#FFAEAE;" d="M400.003,217.683c12.441-12.441,30.439-14.613,40.199-4.853c9.76,9.76,7.588,27.758-4.853,40.199
	c-12.441,12.441-30.439,14.613-40.199,4.853C395.15,257.883,377.363,240.69,400.003,217.683z"/>
<polygon style="fill:#FFC433;" points="129.605,245.483 30.052,252.287 30.052,182.043 162.113,191.22 162.113,243.111 "/>
<path style="fill:#DDA322;" d="M177.958,252.287h-9.755c-3.364,0-6.091-2.727-6.091-6.091v-58.063c0-3.364,2.727-6.091,6.091-6.091
	h9.755c3.364,0,6.091,2.727,6.091,6.091v58.063C184.048,249.561,181.322,252.287,177.958,252.287z"/>
<path style="fill:#FFC433;" d="M226.908,235.904h-42.86v-37.479h42.86c2.803,0,5.076,2.273,5.076,5.076v27.328
	C231.984,233.633,229.712,235.904,226.908,235.904z"/>
<path style="fill:#F9C5B5;" d="M270.989,416.345l-125.592,46.804l-21.612-141.927l21.072-2.633c5.563-0.695,9.51-5.769,8.814-11.332
	l0.877-35.887l6.968-28.567c2.837-6.229,0.063-13.645-6.166-16.482l0,0c-6.229-2.837-13.645-0.063-16.482,6.166l-5.806,12.747
	l-96.68,5.693l8.123,69.713c0.695,5.563,5.769,9.51,11.332,8.814l13.735-1.717L84.88,503.309h203.116L270.989,416.345z"/>
<polygon style="fill:#65CDEF;" points="477.879,393.338 477.879,498.519 270.989,503.307 270.989,478.186 270.989,447.266 
	270.989,416.345 346.983,407.549 "/>
<polygon style="opacity:0.1;enable-background:new    ;" points="477.879,498.519 477.879,393.338 448.821,396.493 448.821,498.519 
	"/>
<path style="fill:#DDA322;" d="M26.23,270.935H10.151C4.545,270.935,0,266.39,0,260.784v-87.237c0-5.606,4.545-10.151,10.151-10.151
	H26.23c5.606,0,10.151,4.545,10.151,10.151v87.237C36.381,266.39,31.837,270.935,26.23,270.935z"/>
<path style="opacity:0.1;enable-background:new    ;" d="M226.908,223.794h-42.86v10.292c0,3.364-2.727,6.091-6.091,6.091h-9.755
	c-3.364,0-6.091-2.727-6.091-6.091v-3.087l-32.507,2.372l-93.223,6.372v8.929c0,5.606-4.545,10.151-10.151,10.151H10.151
	C4.545,258.823,0,254.279,0,248.672v11.366c0,5.606,4.545,10.151,10.151,10.151H26.23c5.606,0,10.151-4.545,10.151-10.151v-8.929
	l93.223-6.372l9.718-0.71l5.989-11.804l11.328,1.1l5.472,9.04v3.087c0,3.364,2.727,6.091,6.091,6.091h9.755
	c3.364,0,6.091-2.727,6.091-6.091v-10.292h42.86c2.803,0,5.076-2.273,5.076-5.076v-11.366
	C231.984,221.522,229.712,223.794,226.908,223.794z"/>
<path style="fill:#F2B8AD;" d="M155.885,226.319c-6.229-2.837-13.645-0.063-16.482,6.166l-17.504,37.707
	c0,0-22.527,8.101-27.926,28.925c-0.397,1.533-2.307,2.018-3.381,0.855c-15.023-16.279-36.927-14.608-49.857-11.686l3.769,32.35
	c0.647,5.171,5.077,8.94,10.166,8.887c0.386-0.004,0.774-0.024,1.165-0.073l2.931-0.366l10.821-1.161l26.427-2.835
	c0.023,0.065,0.044,0.129,0.068,0.194l7.061-0.958l0,0l0,0l42.247-5.735c5.563-0.695,9.51-5.769,8.814-11.332l0.877-35.887
	l6.968-28.567C164.888,236.573,162.113,229.156,155.885,226.319z"/>
<g style="opacity:0.2;">
	<path d="M300.455,192.843c-4.205,0-7.613,3.408-7.613,7.613v25.828c0,4.206,3.409,7.613,7.613,7.613
		c4.205,0,7.613-3.408,7.613-7.613v-25.828C308.068,196.25,304.66,192.843,300.455,192.843z"/>
</g>
<g>
</g>
<g>
</g>
<g>
</g>
<g>
</g>
<g>
</g>
<g>
</g>
<g>
</g>
<g>
</g>
<g>
</g>
<g>
</g>
<g>
</g>
<g>
</g>
<g>
</g>
<g>
</g>
<g>
</g>
</svg>
