<svg id="Layer_35" enable-background="new 0 0 64 64" viewBox="0 0 64 64" xmlns="http://www.w3.org/2000/svg"><path d="m62 24c0-3.28-2.27-6.03-5.32-6.79.21-.7.32-1.44.32-2.21 0-4.42-3.58-8-8-8-1.1 0-2.16.22-3.11.63h-.02c-.64-3.21-3.47-5.63-6.87-5.63-3.87 0-7 3.13-7 7 0-3.87-3.13-7-7-7-3.4 0-6.23 2.42-6.87 5.63h-.02c-.95-.41-2.01-.63-3.11-.63-4.42 0-8 3.58-8 8 0 .77.11 1.51.32 2.21-3.05.76-5.32 3.51-5.32 6.79 0 2.81 1.65 5.23 4.03 6.34-.65 1.06-1.03 2.32-1.03 3.66 0 3.87 3.13 7 7 7 1.12 0 2.18-.27 3.12-.74.59 3.26 3.44 5.74 6.88 5.74 1.96 0 3.73-.8 5-2.1h10c1.27 1.3 3.04 2.1 5 2.1 3.44 0 6.29-2.48 6.88-5.74.94.47 2 .74 3.12.74 3.87 0 7-3.13 7-7 0-1.34-.38-2.6-1.03-3.66 2.38-1.11 4.03-3.53 4.03-6.34z" fill="#fcd770"/><path d="m37 48.35c6.39.92 11 3.55 11 6.65 0 3.87-7.16 7-16 7s-16-3.13-16-7c0-3.1 4.61-5.73 11-6.65v7.15c0 .69.28 1.32.73 1.77s1.08.73 1.77.73c1.38 0 2.5-1.12 2.5-2.5 0 1.38 1.12 2.5 2.5 2.5.69 0 1.32-.28 1.77-.73s.73-1.08.73-1.77z" fill="#e6e9ed"/><path d="m37 43.9v4.45 7.15c0 .69-.28 1.32-.73 1.77s-1.08.73-1.77.73c-1.38 0-2.5-1.12-2.5-2.5v-16.5h5v3z" fill="#838f9b"/><path d="m32 39v16.5c0 1.38-1.12 2.5-2.5 2.5-.69 0-1.32-.28-1.77-.73s-.73-1.08-.73-1.77v-7.15-4.45-1.9-3z" fill="#838f9b"/><path d="m37 39h-5-5v3h-2c-1.66 0-3-1.34-3-3v-5c0-2.76 1.12-5.26 2.93-7.07 1.53-1.53 3.55-2.57 5.81-2.85l-.74 5.92 2 2 2-2-.74-5.92c4.93.62 8.74 4.83 8.74 9.92v5c0 1.66-1.34 3-3 3h-2z" fill="#b4dd7f"/><path d="m33.26 24.08.74 5.92-2 2-2-2 .74-5.92c.41-.05.83-.08 1.26-.08s.85.03 1.26.08z" fill="#e6e9ed"/><circle cx="32" cy="18" fill="#f0d0b4" r="6"/><path d="m63 24c0-3.351-2.068-6.294-5.135-7.464.09-.511.135-1.024.135-1.536 0-4.963-4.037-9-9-9-.842 0-1.665.122-2.461.349-1.098-3.11-4.058-5.349-7.539-5.349-3.01 0-5.635 1.673-7 4.136-1.365-2.463-3.99-4.136-7-4.136-3.481 0-6.441 2.239-7.539 5.349-.796-.227-1.619-.349-2.461-.349-4.963 0-9 4.037-9 9 0 .512.045 1.025.135 1.536-3.067 1.17-5.135 4.113-5.135 7.464 0 2.828 1.479 5.312 3.7 6.735-.458 1.022-.7 2.133-.7 3.265 0 4.411 3.589 8 8 8 .837 0 1.654-.129 2.442-.385 1.095 3.182 4.104 5.385 7.558 5.385 1.431 0 2.797-.378 4-1.076v1.58c-6.709 1.146-11 4.04-11 7.496 0 4.486 7.468 8 17 8s17-3.514 17-8c0-3.456-4.291-6.35-11-7.496v-1.58c1.203.698 2.569 1.076 4 1.076 3.454 0 6.463-2.203 7.558-5.385.788.256 1.605.385 2.442.385 4.411 0 8-3.589 8-8 0-1.132-.242-2.243-.7-3.265 2.221-1.423 3.7-3.907 3.7-6.735zm-36-6c0-2.757 2.243-5 5-5s5 2.243 5 5-2.243 5-5 5-5-2.243-5-5zm5.947 11.639-.947.947-.947-.947.578-4.62c.123-.005.244-.019.369-.019s.246.014.37.019zm-.947 3.775 3.053-3.053-.627-5.02c3.786 1.063 6.574 4.537 6.574 8.659v5c0 1.103-.897 2-2 2h-1v-10h-2v7h-8v-7h-2v10h-1c-1.103 0-2-.897-2-2v-5c0-4.122 2.788-7.596 6.575-8.659l-.628 5.02zm-4 6.586h3v15.5c0 .827-.673 1.5-1.5 1.5s-1.5-.673-1.5-1.5zm5 0h3v15.5c0 .827-.673 1.5-1.5 1.5s-1.5-.673-1.5-1.5zm14 15c0 2.838-6.16 6-15 6s-15-3.162-15-6c0-2.271 3.721-4.495 9-5.468v5.968c0 1.93 1.57 3.5 3.5 3.5.98 0 1.864-.407 2.5-1.058.636.651 1.52 1.058 2.5 1.058 1.93 0 3.5-1.57 3.5-3.5v-5.968c5.279.973 9 3.197 9 5.468zm11-21c0 3.309-2.691 6-6 6-.93 0-1.829-.214-2.672-.635l-1.192-.596-.238 1.312c-.519 2.851-3 4.919-5.898 4.919-1.495 0-2.898-.546-4-1.536v-.464h1c2.206 0 4-1.794 4-4v-5c0-4.663-2.921-8.647-7.025-10.245 1.825-1.265 3.025-3.372 3.025-5.755 0-3.859-3.141-7-7-7s-7 3.141-7 7c0 2.383 1.2 4.49 3.025 5.755-4.104 1.598-7.025 5.582-7.025 10.245v5c0 2.206 1.794 4 4 4h1v.464c-1.102.99-2.505 1.536-4 1.536-2.898 0-5.379-2.068-5.897-4.919l-.238-1.312-1.192.596c-.844.421-1.743.635-2.673.635-3.309 0-6-2.691-6-6 0-.833.172-1.651.501-2.405.788.26 1.626.405 2.499.405 4.411 0 8-3.589 8-8h-2c0 3.309-2.691 6-6 6s-6-2.691-6-6c0-2.762 1.874-5.153 4.557-5.817l1.008-.249-.287-.998c-.184-.641-.278-1.292-.278-1.936 0-3.859 3.141-7 7-7 .698 0 1.38.102 2.035.301-.02.231-.035.463-.035.699 0 2.655 1.313 5.131 3.513 6.623l1.123-1.654c-1.651-1.12-2.636-2.978-2.636-4.969 0-3.309 2.691-6 6-6s6 2.691 6 6h2c0-3.309 2.691-6 6-6s6 2.691 6 6c0 1.991-.985 3.849-2.636 4.969l1.123 1.654c2.2-1.492 3.513-3.968 3.513-6.623 0-.236-.015-.468-.035-.699.655-.199 1.337-.301 2.035-.301 3.859 0 7 3.141 7 7 0 .644-.094 1.295-.277 1.936l-.287.998 1.008.249c2.682.664 4.556 3.055 4.556 5.817 0 3.309-2.691 6-6 6s-6-2.691-6-6h-2c0 4.411 3.589 8 8 8 .873 0 1.711-.145 2.499-.405.329.754.501 1.572.501 2.405z"/><path d="m55 28v-2c-1.103 0-2-.897-2-2h-2c0 2.206 1.794 4 4 4z"/><path d="m5 24h2c0-1.103.897-2 2-2v-2c-2.206 0-4 1.794-4 4z"/><path d="m39 5v2c1.103 0 2 .897 2 2h2c0-2.206-1.794-4-4-4z"/><path d="m21 9h2c0-1.103.897-2 2-2v-2c-2.206 0-4 1.794-4 4z"/></svg>